<svg width="3163" height="585" viewBox="0 0 3163 585" fill="none" xmlns="http://www.w3.org/2000/svg">
<path d="M3162.37 534.149C3152.63 542.582 3143.61 551.741 3133.29 559.156C3110.46 575.44 3084.88 583.728 3056.52 583.873C3032.82 584.018 3009.71 582.274 2987.17 574.132C2953.88 562.064 2934.68 537.929 2927.12 504.343C2923.78 489.512 2921.89 474.246 2921.74 459.126C2921.31 327.544 2921.45 196.109 2921.31 64.5277C2921.31 59.439 2922.03 56.2404 2928.14 55.9497C2954.46 54.4953 2980.77 52.7507 3006.94 51.1516C3007.38 51.1516 3007.82 51.5881 3008.4 51.8788C3008.4 54.6412 3008.4 57.4037 3008.4 60.3117C3008.4 105.093 3008.4 149.874 3008.25 194.801C3008.25 200.035 3009.71 203.234 3015.52 203.234C3064.37 203.088 3113.37 202.943 3162.22 202.798C3162.22 231.877 3162.22 260.955 3162.22 290.034C3161.06 290.034 3159.75 290.179 3158.59 290.179C3111.63 290.179 3064.66 290.179 3017.7 290.034C3012.18 290.034 3008.25 290.906 3008.4 297.74C3008.54 347.9 3008.25 397.916 3008.69 448.076C3008.98 470.031 3021.63 487.041 3042.86 492.421C3055.07 495.62 3068.15 496.492 3080.8 496.347C3109.16 495.911 3136.05 487.769 3162.37 477.446C3162.37 496.347 3162.37 515.247 3162.37 534.149ZM2806.16 451.275C2806.16 468.286 2806.3 485.151 2806.01 502.162C2806.01 504.78 2804.41 507.687 2802.52 509.722C2773.3 542.872 2736.8 561.483 2692.6 564.826C2645.5 568.462 2602.46 557.557 2565.38 527.897C2513.91 486.605 2490.65 432.373 2497.63 366.655C2505.63 290.615 2547.65 239.727 2618.6 214.428C2665.71 197.708 2713.54 200.47 2758.9 223.733C2790.31 239.872 2808.19 267.206 2818.95 299.774C2825.35 319.111 2827.38 339.03 2827.24 359.24C2827.24 374.215 2826.8 389.337 2827.38 404.312C2827.67 411.582 2825.64 413.763 2818.22 413.763C2766.32 413.472 2714.56 413.617 2662.65 413.617C2641.57 413.617 2620.49 413.617 2599.41 413.617C2588.79 413.617 2587.77 414.925 2590.68 424.958C2598.82 453.31 2619.47 468.576 2646.51 475.701C2696.09 488.786 2743.35 480.644 2788.85 458.399C2794.09 455.782 2799.18 453.165 2804.41 450.547C2804.7 450.547 2804.99 450.838 2806.16 451.275ZM2667.31 336.559C2687.66 336.559 2708.02 336.559 2728.37 336.559C2735.93 336.559 2736.8 334.959 2734.04 328.562C2721.68 300.937 2700.02 290.032 2672.68 291.196C2643.75 292.359 2621.22 306.171 2602.9 327.835C2601.3 329.725 2600.86 332.342 2599.84 334.668C2602.31 335.395 2604.64 336.559 2607.11 336.559C2627.18 336.559 2647.24 336.559 2667.31 336.559ZM2447.76 204.396C2439.18 213.847 2431.77 221.989 2424.21 229.986C2394.69 261.681 2365.18 293.522 2335.52 325.218C2332.46 328.417 2332.32 330.743 2334.64 334.669C2380.73 408.674 2426.68 482.68 2472.77 556.83C2474.37 559.447 2475.97 562.21 2478.15 565.554C2475.97 565.844 2474.51 566.135 2473.06 566.135C2448.05 566.135 2423.19 565.989 2398.18 566.28C2393.24 566.28 2390.33 564.972 2387.57 560.756C2352.82 505.07 2317.78 449.53 2282.88 393.99C2278.81 387.447 2278.09 387.301 2273 392.826C2261.95 404.748 2250.75 416.525 2240.14 428.738C2237.67 431.501 2236.07 435.863 2236.07 439.643C2235.78 479.626 2235.92 519.609 2235.92 559.593C2235.92 561.483 2235.63 563.372 2235.49 565.844C2206.7 565.844 2178.2 565.844 2149.27 565.844C2149.27 405.039 2149.27 244.088 2149.27 82.5561C2177.33 76.7405 2205.97 76.0137 2236.07 76.4495C2236.07 79.0668 2236.07 81.8293 2236.07 84.4458C2236.07 160.487 2236.07 236.673 2236.21 312.714C2236.21 314.604 2237.52 316.494 2238.1 318.384C2239.99 317.221 2242.32 316.349 2243.92 314.749C2276.05 280.436 2308.18 246.124 2340.02 211.52C2344.68 206.432 2349.33 204.396 2356.31 204.541C2386.11 204.687 2415.92 204.396 2447.76 204.396ZM1506.19 204.833C1554.75 204.978 1597.79 219.226 1631.96 254.266C1662.64 285.671 1677.61 324.636 1680.66 368.109C1683.43 407.656 1678.34 446.04 1658.42 481.226C1630.36 530.951 1588.19 559.302 1531.05 564.826C1503.14 567.589 1475.22 567.153 1448.33 558.575C1393.51 541.127 1357.02 503.907 1340.73 449.529C1319.8 379.74 1328.52 314.022 1377.81 257.61C1402.24 229.694 1433.93 213.555 1470.86 208.321C1482.49 206.577 1494.42 205.85 1506.19 204.833ZM1420.26 384.975C1419.68 399.369 1423.17 412.891 1428.55 425.976C1456.32 493.73 1536.72 491.84 1570.6 452.001C1597.94 419.869 1603.17 383.376 1587.03 344.119C1566.24 293.668 1501.98 274.767 1458.36 306.462C1431.75 325.655 1421.43 353.279 1420.26 384.975ZM2022.78 321.147C1993.7 297.884 1960.4 290.469 1924.78 292.795C1899.19 294.394 1878.84 307.335 1865.75 328.998C1843.8 365.783 1842.05 403.876 1864.44 441.242C1879.71 466.686 1902.53 480.353 1932.92 480.353C1971.74 480.498 2007.95 470.321 2043.13 455.054C2045.6 454.036 2047.93 452.873 2050.4 452.001C2050.69 451.855 2051.27 452.147 2052.58 452.437C2052.58 466.541 2051.85 480.789 2052.87 494.892C2053.45 504.779 2049.96 511.612 2043.42 518.591C2012.74 550.287 1974.8 564.535 1931.47 566.135C1878.4 568.025 1834.2 549.124 1800.03 508.705C1777.21 481.952 1764.27 450.111 1759.76 415.217C1753.36 365.637 1761.5 318.966 1789.71 277.093C1815.88 238.128 1852.81 215.01 1899.48 208.176C1932.34 203.379 1964.76 204.25 1995.73 217.772C2004.46 221.553 2012.45 227.369 2020.59 232.603C2022.05 233.476 2023.21 236.238 2023.21 237.983C2023.5 265.026 2023.5 292.215 2023.5 319.258C2023.5 319.548 2023.21 319.984 2022.78 321.147ZM1027.52 26.421C1039.74 21.6864 1052.54 18.2285 1065.8 15.9661C1105.05 9.42333 1143.44 12.0403 1179.78 28.4699C1243.47 57.1123 1284.03 105.383 1296.68 174.881C1305.11 220.825 1299.3 265.316 1276.76 306.608C1255.1 346.446 1223.55 376.397 1181.53 393.698C1125.12 416.816 1068.7 416.089 1013.31 389.482C998.915 382.648 998.915 382.503 998.915 398.351C998.915 457.235 998.915 516.12 999.06 575.004C998.914 575.586 998.769 576.313 998.478 577.767C966.346 577.767 934.796 577.767 902.518 577.767C902.518 573.404 902.518 569.334 902.518 565.408C902.518 457.526 902.518 349.789 902.518 241.907C902.518 237.121 902.548 232.335 902.637 227.553L1027.52 26.421ZM1100.69 314.75C1156.67 314.75 1204.21 267.933 1204.5 212.538C1204.79 155.98 1157.54 108.582 1101.56 107.709C1041.81 106.692 997.606 162.523 998.187 211.229C998.769 267.206 1045.29 314.75 1100.69 314.75ZM1027.52 26.421V26.0722H902.637V112.538L1027.52 26.421ZM951.303 577.767V578.182H902.637V26.0722H951.303V577.767ZM923.788 116.35H902.637V26.0722H1028.43L923.788 116.35ZM923.788 26.0722H1032.14V135.876C1031.07 136.604 1030.22 137.503 1029.17 138.989L1024.46 144.375C1023.8 144.976 1023.11 145.961 1022.43 147.005L1019.7 149.701L1013.98 158.836H923.788V26.0722Z" fill="#753ED7"/>
<path d="M902.637 227.553C902.548 232.335 902.518 237.121 902.518 241.907C902.518 349.789 902.518 457.526 902.518 565.408C902.518 569.334 902.518 573.404 902.518 577.767C934.796 577.767 966.346 577.767 998.478 577.767C998.769 576.313 998.914 575.586 999.06 575.004C998.915 516.12 998.915 457.235 998.915 398.351C998.915 382.503 998.915 382.648 1013.31 389.482C1068.7 416.089 1125.12 416.816 1181.53 393.698C1223.55 376.397 1255.1 346.446 1276.76 306.608C1299.3 265.316 1305.11 220.825 1296.68 174.881C1284.03 105.383 1243.47 57.1123 1179.78 28.4699C1143.44 12.0403 1105.05 9.42333 1065.8 15.9661C1052.54 18.2285 1039.74 21.6864 1027.52 26.421V26.0722H902.637M902.637 26.0722V112.538M902.637 26.0722V578.182H951.303V577.767M902.637 26.0722H951.303M902.637 26.0722V116.35H923.788M902.637 26.0722H1028.43M3162.37 534.149C3152.63 542.582 3143.61 551.741 3133.29 559.156C3110.46 575.44 3084.88 583.728 3056.52 583.873C3032.82 584.018 3009.71 582.274 2987.17 574.132C2953.88 562.064 2934.68 537.929 2927.12 504.343C2923.78 489.512 2921.89 474.246 2921.74 459.126C2921.31 327.544 2921.45 196.109 2921.31 64.5277C2921.31 59.439 2922.03 56.2404 2928.14 55.9497C2954.46 54.4953 2980.77 52.7507 3006.94 51.1516C3007.38 51.1516 3007.82 51.5881 3008.4 51.8788C3008.4 54.6412 3008.4 57.4037 3008.4 60.3117C3008.4 105.093 3008.4 149.874 3008.25 194.801C3008.25 200.035 3009.71 203.234 3015.52 203.234C3064.37 203.088 3113.37 202.943 3162.22 202.798C3162.22 231.877 3162.22 260.955 3162.22 290.034C3161.06 290.034 3159.75 290.179 3158.59 290.179C3111.63 290.179 3064.66 290.179 3017.7 290.034C3012.18 290.034 3008.25 290.906 3008.4 297.74C3008.54 347.9 3008.25 397.916 3008.69 448.076C3008.98 470.031 3021.63 487.041 3042.86 492.421C3055.07 495.62 3068.15 496.492 3080.8 496.347C3109.16 495.911 3136.05 487.769 3162.37 477.446C3162.37 496.347 3162.37 515.247 3162.37 534.149ZM2806.16 451.275C2806.16 468.286 2806.3 485.151 2806.01 502.162C2806.01 504.78 2804.41 507.687 2802.52 509.722C2773.3 542.872 2736.8 561.483 2692.6 564.826C2645.5 568.462 2602.46 557.557 2565.38 527.897C2513.91 486.605 2490.65 432.373 2497.63 366.655C2505.63 290.614 2547.65 239.727 2618.6 214.428C2665.71 197.708 2713.54 200.47 2758.9 223.733C2790.31 239.872 2808.19 267.206 2818.95 299.774C2825.35 319.111 2827.38 339.03 2827.24 359.24C2827.24 374.215 2826.8 389.337 2827.38 404.312C2827.67 411.582 2825.64 413.763 2818.22 413.763C2766.32 413.472 2714.56 413.617 2662.65 413.617C2641.57 413.617 2620.49 413.617 2599.41 413.617C2588.79 413.617 2587.77 414.925 2590.68 424.958C2598.82 453.31 2619.47 468.576 2646.51 475.701C2696.09 488.786 2743.35 480.644 2788.85 458.399C2794.09 455.782 2799.18 453.165 2804.41 450.547C2804.7 450.547 2804.99 450.838 2806.16 451.275ZM2667.31 336.558C2687.66 336.558 2708.02 336.558 2728.37 336.558C2735.93 336.558 2736.8 334.959 2734.04 328.562C2721.68 300.937 2700.02 290.032 2672.68 291.196C2643.75 292.359 2621.22 306.171 2602.9 327.835C2601.3 329.725 2600.86 332.342 2599.84 334.668C2602.31 335.395 2604.64 336.558 2607.11 336.558C2627.18 336.558 2647.24 336.558 2667.31 336.558ZM2447.76 204.396C2439.18 213.847 2431.77 221.989 2424.21 229.986C2394.69 261.681 2365.18 293.522 2335.52 325.218C2332.46 328.417 2332.32 330.743 2334.64 334.669C2380.73 408.674 2426.68 482.68 2472.77 556.83C2474.37 559.447 2475.97 562.21 2478.15 565.554C2475.97 565.844 2474.51 566.135 2473.06 566.135C2448.05 566.135 2423.19 565.989 2398.18 566.28C2393.24 566.28 2390.33 564.972 2387.57 560.756C2352.82 505.07 2317.78 449.53 2282.88 393.99C2278.81 387.447 2278.09 387.301 2273 392.826C2261.95 404.748 2250.75 416.525 2240.14 428.738C2237.67 431.501 2236.07 435.863 2236.07 439.643C2235.78 479.626 2235.92 519.609 2235.92 559.593C2235.92 561.483 2235.63 563.372 2235.49 565.844C2206.7 565.844 2178.2 565.844 2149.27 565.844C2149.27 405.039 2149.27 244.088 2149.27 82.5561C2177.33 76.7405 2205.97 76.0137 2236.07 76.4495C2236.07 79.0668 2236.07 81.8293 2236.07 84.4458C2236.07 160.487 2236.07 236.673 2236.21 312.714C2236.21 314.604 2237.52 316.494 2238.1 318.384C2239.99 317.221 2242.32 316.349 2243.92 314.749C2276.05 280.436 2308.18 246.124 2340.02 211.52C2344.68 206.432 2349.33 204.396 2356.31 204.541C2386.11 204.687 2415.92 204.396 2447.76 204.396ZM1506.19 204.833C1554.75 204.978 1597.79 219.226 1631.96 254.266C1662.64 285.671 1677.61 324.636 1680.66 368.109C1683.43 407.656 1678.34 446.04 1658.42 481.226C1630.36 530.951 1588.19 559.302 1531.05 564.826C1503.14 567.589 1475.22 567.153 1448.33 558.575C1393.51 541.127 1357.02 503.907 1340.73 449.529C1319.8 379.74 1328.52 314.022 1377.81 257.61C1402.24 229.694 1433.93 213.555 1470.86 208.321C1482.49 206.577 1494.42 205.85 1506.19 204.833ZM1420.26 384.975C1419.68 399.369 1423.17 412.891 1428.55 425.976C1456.32 493.73 1536.72 491.84 1570.6 452.001C1597.94 419.869 1603.17 383.376 1587.03 344.119C1566.24 293.668 1501.98 274.767 1458.36 306.462C1431.75 325.655 1421.43 353.279 1420.26 384.975ZM2022.78 321.147C1993.7 297.884 1960.4 290.469 1924.78 292.795C1899.19 294.394 1878.84 307.335 1865.75 328.998C1843.8 365.783 1842.05 403.876 1864.44 441.242C1879.71 466.686 1902.53 480.353 1932.92 480.353C1971.74 480.498 2007.95 470.321 2043.13 455.054C2045.6 454.036 2047.93 452.873 2050.4 452.001C2050.69 451.855 2051.27 452.147 2052.58 452.437C2052.58 466.541 2051.85 480.789 2052.87 494.892C2053.45 504.779 2049.96 511.612 2043.42 518.591C2012.74 550.287 1974.8 564.535 1931.47 566.135C1878.4 568.025 1834.2 549.124 1800.03 508.705C1777.21 481.952 1764.27 450.111 1759.76 415.217C1753.36 365.637 1761.5 318.966 1789.71 277.093C1815.88 238.128 1852.81 215.01 1899.48 208.176C1932.34 203.379 1964.76 204.25 1995.73 217.772C2004.46 221.553 2012.45 227.369 2020.59 232.603C2022.05 233.476 2023.21 236.238 2023.21 237.983C2023.5 265.026 2023.5 292.215 2023.5 319.258C2023.5 319.548 2023.21 319.984 2022.78 321.147ZM1100.69 314.75C1156.67 314.75 1204.21 267.933 1204.5 212.538C1204.79 155.98 1157.54 108.582 1101.56 107.709C1041.81 106.692 997.606 162.523 998.187 211.229C998.769 267.206 1045.29 314.75 1100.69 314.75ZM923.788 26.0722H1032.14V135.876C1031.07 136.604 1030.22 137.503 1029.17 138.989L1024.46 144.375C1023.8 144.976 1023.11 145.961 1022.43 147.005L1019.7 149.701L1013.98 158.836H923.788V26.0722Z" stroke="#753ED7" stroke-width="1.00006" stroke-miterlimit="22.9256"/>
<path d="M565.747 247.917C565.792 248.611 565.803 249.37 565.784 250.197C565.784 253.105 565.784 256.158 565.784 259.066C565.784 262.992 565.784 266.918 565.929 270.988C566.075 281.747 566.365 292.361 565.929 303.12C565.929 305.156 565.784 307.046 565.639 309.082C563.167 347.465 552.699 383.814 535.106 418.127C506.754 473.667 462.991 513.36 408.613 542.583C379.68 558.14 348.566 566.573 316.143 570.354C244.9 578.496 179.618 562.211 121.024 521.065C73.7713 487.915 40.3311 443.57 19.3944 389.775C9.5072 364.476 3.83753 338.16 1.8015 311.408C-2.70558 253.832 8.34387 199.309 36.696 148.567C80.314 70.491 149.085 28.6177 234.722 11.4609C284.011 1.57401 332.717 5.79044 380.552 20.4754C381.424 20.7661 382.296 21.0567 383.169 21.3481C385.641 22.0749 386.077 25.4186 383.896 26.873C377.789 30.9436 372.12 34.5787 366.595 38.5045C347.548 51.881 330.537 67.4379 315.561 85.0305C313.38 87.5023 311.345 90.1193 309.31 92.7366C305.239 97.9708 300.44 100.152 293.607 99.861C281.975 99.2797 270.344 99.4248 258.858 99.1342C228.907 98.5525 202.881 110.038 178.892 126.323C131.203 158.455 102.124 203.236 93.9815 260.23C85.1125 322.168 103.578 376.109 146.323 421.471C176.129 453.022 212.768 472.359 255.514 478.756C296.37 485.008 335.625 478.32 372.12 458.547C419.081 433.248 450.486 394.719 466.771 343.977C469.824 334.526 469.097 333.508 459.065 333.508C397.273 333.508 335.48 333.362 273.688 333.654C273.252 333.654 272.815 333.654 272.38 333.654C266.273 333.363 264.964 331.037 265.11 324.494C265.401 313.444 265.11 302.249 264.964 291.053V286.546L264.968 282.618C264.968 278.547 265.113 274.33 265.258 270.259C266.858 239.872 272.964 210.357 284.16 181.86C310.33 114.688 355.548 64.3818 419.376 31.0864C447.582 16.4018 477.533 7.53242 509.084 3.17084C564.479 -4.53486 617.693 3.60738 668.29 27.1606C715.182 49.0728 755.211 84.5864 783.869 127.589C807.046 162.368 820.07 198.415 826.582 239.581C829.113 255.582 831.218 270.695 830.952 286.957C830.731 300.407 829.443 315.461 827.548 328.789C821.264 372.987 805.151 412.27 779.928 448.998C778.802 450.639 777.942 451.819 776.724 453.39C775.771 454.619 774.885 456.066 773.903 457.366C770.582 461.764 767.078 466.012 763.576 470.26C760.894 473.513 757.827 476.812 755.016 479.989C751.318 484.17 747.093 488.277 743.089 492.204C742.043 493.23 740.929 494.249 739.86 495.287C733.803 501.164 726.469 507.251 719.817 512.469C716.995 514.684 714.037 516.725 711.233 518.956C710.579 519.477 709.339 520.259 708.563 520.812C706.331 522.402 703.713 524.144 701.409 525.648C698.967 527.243 696.666 528.463 694.129 529.986C691.378 531.637 688.859 533.193 686.085 534.731C683.605 536.106 681.167 537.48 678.67 538.782C675.673 540.347 673.383 541.738 670.193 543.158C669.151 543.621 668.166 544.156 667.124 544.619C666.543 544.91 665.961 545.2 665.234 545.492C664.071 546.073 662.762 546.655 661.599 547.236C660.726 547.673 659.708 548.109 658.836 548.4C656.365 549.563 653.893 550.581 651.276 551.598C630.34 560.176 608.24 565.847 585.704 568.464C584.831 568.61 583.959 568.61 583.086 568.755C581.342 568.901 579.451 569.191 577.707 569.337C577.561 569.337 577.561 569.337 577.416 569.337C576.107 569.482 574.944 569.627 573.636 569.627C572.472 569.773 571.31 569.773 570.146 569.918C566.076 570.208 562.004 570.499 557.933 570.645C557.352 570.645 556.77 570.645 556.334 570.645C555.171 570.645 554.008 570.645 552.699 570.645C516.351 571.226 480.729 565.411 446.271 551.889C445.835 551.744 445.398 551.598 445.108 551.308C443.363 550.435 442.782 548.4 443.799 546.946C443.799 546.946 444.236 546.364 444.526 546.219C444.672 546.073 444.962 545.928 444.962 545.928C445.399 545.637 445.835 545.347 446.271 545.055C446.707 544.765 447.144 544.474 447.579 544.183C448.161 543.746 448.743 543.456 449.178 543.019C473.459 525.863 495.123 505.799 514.46 483.408C518.24 479.046 522.166 477.301 527.691 477.883C568.983 482.681 607.657 474.248 643.279 453.021C696.639 421.325 728.334 374.363 737.785 313.589C745.054 266.772 735.313 222.427 709.578 182.298C680.209 136.354 638.481 106.694 585.267 96.3706C519.985 83.7213 462.846 101.459 414.575 147.84C390.003 171.394 373.428 199.6 363.832 232.168C361.36 240.601 362.088 241.328 370.811 241.328C416.113 241.328 461.505 241.416 506.915 241.317L565.747 247.917ZM388.65 23.592L379.12 29.8966L374.428 18.7538L389.237 23.2991L376.334 31.803L370.762 17.7277L388.65 23.592ZM506.915 241.317V241.176H565.747V247.917L506.915 241.317ZM312.738 333.522V333.605H264.952L264.966 284.664L312.738 333.522ZM510.472 487.956L519.429 476.916L531.473 478.287L510.472 487.956Z" fill="#F84B00"/>
</svg>
