<svg width="130" height="30" viewBox="0 0 130 30" fill="none" xmlns="http://www.w3.org/2000/svg">
<path d="M72.104 25.244C71.768 25.58 71.276 25.832 70.628 26C70.004 26.192 69.248 26.288 68.36 26.288C67.472 26.288 66.632 26.156 65.84 25.892C65.048 25.628 64.4 24.992 63.896 23.984L60.332 16.712C59.972 15.968 59.648 15.272 59.36 14.624C59.072 13.952 58.76 13.184 58.424 12.32L58.208 12.356C58.304 13.652 58.352 14.972 58.352 16.316C58.376 17.66 58.388 18.98 58.388 20.276V25.856C58.124 25.928 57.716 26 57.164 26.072C56.636 26.144 56.108 26.18 55.58 26.18C55.052 26.18 54.584 26.144 54.176 26.072C53.768 26 53.432 25.856 53.168 25.64C52.904 25.424 52.7 25.136 52.556 24.776C52.412 24.392 52.34 23.9 52.34 23.3V5.3C52.676 4.82 53.192 4.46 53.888 4.22C54.584 3.98 55.328 3.86 56.12 3.86C57.008 3.86 57.848 4.004 58.64 4.292C59.456 4.556 60.104 5.18 60.584 6.164L64.184 13.436C64.544 14.18 64.868 14.888 65.156 15.56C65.444 16.208 65.756 16.964 66.092 17.828L66.272 17.792C66.176 16.496 66.116 15.2 66.092 13.904C66.068 12.608 66.056 11.312 66.056 10.016V4.184C66.32 4.112 66.716 4.04 67.244 3.968C67.796 3.896 68.336 3.86 68.864 3.86C69.92 3.86 70.724 4.052 71.276 4.436C71.828 4.796 72.104 5.564 72.104 6.74V25.244ZM74.3616 3.644C74.3616 2.732 74.6616 1.964 75.2616 1.34C75.8856 0.715999 76.7016 0.403999 77.7096 0.403999C78.7176 0.403999 79.5216 0.715999 80.1216 1.34C80.7456 1.964 81.0576 2.732 81.0576 3.644C81.0576 4.556 80.7456 5.324 80.1216 5.948C79.5216 6.572 78.7176 6.884 77.7096 6.884C76.7016 6.884 75.8856 6.572 75.2616 5.948C74.6616 5.324 74.3616 4.556 74.3616 3.644ZM80.7696 25.964C80.5056 26.012 80.1096 26.072 79.5816 26.144C79.0776 26.24 78.5616 26.288 78.0336 26.288C77.5056 26.288 77.0256 26.252 76.5936 26.18C76.1856 26.108 75.8376 25.964 75.5496 25.748C75.2616 25.532 75.0336 25.244 74.8656 24.884C74.7216 24.5 74.6496 24.008 74.6496 23.408V8.756C74.9136 8.708 75.2976 8.648 75.8016 8.576C76.3296 8.48 76.8576 8.432 77.3856 8.432C77.9136 8.432 78.3816 8.468 78.7896 8.54C79.2216 8.612 79.5816 8.756 79.8696 8.972C80.1576 9.188 80.3736 9.488 80.5176 9.872C80.6856 10.232 80.7696 10.712 80.7696 11.312V25.964ZM82.1097 17.252C82.1097 15.668 82.3497 14.3 82.8297 13.148C83.3097 11.972 83.9697 11 84.8097 10.232C85.6737 9.464 86.6697 8.9 87.7977 8.54C88.9498 8.156 90.1858 7.964 91.5058 7.964C91.9858 7.964 92.4538 8.012 92.9098 8.108C93.3658 8.18 93.7378 8.276 94.0258 8.396V2.564C94.2658 2.492 94.6498 2.42 95.1778 2.348C95.7058 2.252 96.2457 2.204 96.7977 2.204C97.3258 2.204 97.7938 2.24 98.2018 2.312C98.6338 2.384 98.9938 2.528 99.2818 2.744C99.5698 2.96 99.7858 3.26 99.9298 3.644C100.074 4.004 100.146 4.484 100.146 5.084V22.148C100.146 23.276 99.6178 24.176 98.5618 24.848C97.8658 25.304 96.9658 25.7 95.8618 26.036C94.7578 26.396 93.4858 26.576 92.0458 26.576C90.4858 26.576 89.0818 26.36 87.8338 25.928C86.6098 25.496 85.5658 24.872 84.7017 24.056C83.8617 23.24 83.2137 22.268 82.7577 21.14C82.3257 19.988 82.1097 18.692 82.1097 17.252ZM92.3338 12.752C91.0378 12.752 90.0417 13.124 89.3457 13.868C88.6497 14.612 88.3017 15.74 88.3017 17.252C88.3017 18.74 88.6257 19.868 89.2737 20.636C89.9217 21.38 90.8577 21.752 92.0818 21.752C92.5138 21.752 92.8977 21.692 93.2337 21.572C93.5938 21.428 93.8698 21.272 94.0617 21.104V13.184C93.5818 12.896 93.0058 12.752 92.3338 12.752ZM119.439 25.964C119.199 26.036 118.815 26.108 118.287 26.18C117.783 26.252 117.255 26.288 116.703 26.288C116.175 26.288 115.695 26.252 115.263 26.18C114.855 26.108 114.507 25.964 114.219 25.748C113.931 25.532 113.703 25.244 113.535 24.884C113.391 24.5 113.319 24.008 113.319 23.408V15.416C113.319 14.432 113.067 13.748 112.563 13.364C112.083 12.956 111.483 12.752 110.763 12.752C110.283 12.752 109.827 12.812 109.395 12.932C108.963 13.052 108.615 13.196 108.351 13.364V25.964C108.111 26.036 107.727 26.108 107.199 26.18C106.695 26.252 106.167 26.288 105.615 26.288C105.087 26.288 104.607 26.252 104.175 26.18C103.767 26.108 103.419 25.964 103.131 25.748C102.843 25.532 102.615 25.244 102.447 24.884C102.303 24.5 102.231 24.008 102.231 23.408V2.528C102.495 2.48 102.879 2.42 103.383 2.348C103.911 2.252 104.439 2.204 104.967 2.204C105.495 2.204 105.963 2.24 106.371 2.312C106.803 2.384 107.163 2.528 107.451 2.744C107.739 2.96 107.955 3.26 108.099 3.644C108.267 4.004 108.351 4.484 108.351 5.084V8.612C108.663 8.492 109.131 8.36 109.755 8.216C110.403 8.048 111.111 7.964 111.879 7.964C114.255 7.964 116.103 8.564 117.423 9.764C118.767 10.94 119.439 12.704 119.439 15.056V25.964ZM121.274 3.644C121.274 2.732 121.574 1.964 122.174 1.34C122.798 0.715999 123.614 0.403999 124.622 0.403999C125.63 0.403999 126.434 0.715999 127.034 1.34C127.658 1.964 127.97 2.732 127.97 3.644C127.97 4.556 127.658 5.324 127.034 5.948C126.434 6.572 125.63 6.884 124.622 6.884C123.614 6.884 122.798 6.572 122.174 5.948C121.574 5.324 121.274 4.556 121.274 3.644ZM127.682 25.964C127.418 26.012 127.022 26.072 126.494 26.144C125.99 26.24 125.474 26.288 124.946 26.288C124.418 26.288 123.938 26.252 123.506 26.18C123.098 26.108 122.75 25.964 122.462 25.748C122.174 25.532 121.946 25.244 121.778 24.884C121.634 24.5 121.562 24.008 121.562 23.408V8.756C121.826 8.708 122.21 8.648 122.714 8.576C123.242 8.48 123.77 8.432 124.298 8.432C124.826 8.432 125.294 8.468 125.702 8.54C126.134 8.612 126.494 8.756 126.782 8.972C127.07 9.188 127.286 9.488 127.43 9.872C127.598 10.232 127.682 10.712 127.682 11.312V25.964Z" fill="#753ED7"/>
<path fill-rule="evenodd" clip-rule="evenodd" d="M14.3144 1.24814C16.3744 1.24814 18.3288 1.6707 20.0719 2.46301L15.318 6.42457C15.0011 6.37174 14.6841 6.37174 14.3144 6.37174C9.24362 6.37174 5.12361 10.4918 5.12361 15.5625C5.12361 20.6333 9.24362 24.7533 14.3144 24.7533C17.8534 24.7533 20.2831 22.5349 22.7129 20.5277L28.6288 15.5625L31.9037 19.5241L25.2483 25.1759C23.1883 26.8662 21.8678 28.1339 19.1211 29.1375C17.6421 29.6657 16.0047 29.9298 14.3672 29.9298C6.44412 29.9298 0 23.4856 0 15.5625C0 7.69226 6.44412 1.24814 14.3144 1.24814Z" fill="#753ED7"/>
<path fill-rule="evenodd" clip-rule="evenodd" d="M28.893 29.9299C26.8329 29.9299 24.8786 29.5073 23.1355 28.715L27.9422 24.7006C28.2591 24.7534 28.576 24.7534 28.9458 24.7534C34.0166 24.7534 38.1366 20.6334 38.1366 15.5626C38.1366 10.4919 34.0166 6.37184 28.9458 6.37184C25.4068 6.37184 22.977 8.59031 20.5473 10.5975L14.6314 15.5626L11.3565 11.6011L18.0119 6.0021C20.0719 4.31183 21.3924 3.04414 24.1391 2.04054C25.6181 1.51234 27.2555 1.24823 28.893 1.24823C36.8161 1.24823 43.2074 7.69236 43.2074 15.5626C43.2602 23.4857 36.8161 29.9299 28.893 29.9299Z" fill="#753ED7"/>
</svg>
