<svg width="831" height="573" viewBox="0 0 831 573" fill="none" xmlns="http://www.w3.org/2000/svg">
<path d="M564.92 247.563C564.965 248.257 564.975 249.016 564.956 249.842C564.956 252.75 564.956 255.804 564.956 258.712C564.956 262.637 564.956 266.563 565.102 270.634C565.247 281.393 565.538 292.007 565.102 302.766C565.102 304.801 564.956 306.692 564.811 308.727C562.339 347.111 551.871 383.459 534.278 417.773C505.927 473.313 462.163 513.005 407.785 542.229C378.852 557.786 347.738 566.219 315.315 569.999C244.073 578.141 178.791 561.857 120.197 520.711C72.9439 487.561 39.5037 443.216 18.5671 389.42C8.67981 364.121 3.01014 337.805 0.974112 311.053C-3.53298 253.477 7.51647 198.955 35.8686 148.213C79.4866 70.137 148.258 28.263 233.895 11.106C283.184 1.22 331.89 5.436 379.724 20.121C380.597 20.412 381.469 20.702 382.342 20.994C384.813 21.72 385.25 25.064 383.069 26.519C376.962 30.589 371.292 34.224 365.767 38.15C346.721 51.527 329.709 67.083 314.734 84.676C312.553 87.148 310.517 89.765 308.482 92.382C304.411 97.616 299.613 99.797 292.78 99.506C281.148 98.925 269.517 99.07 258.031 98.78C228.08 98.198 202.054 109.684 178.064 125.968C130.375 158.1 101.296 202.881 93.1542 259.875C84.2851 321.813 102.75 375.754 145.496 421.117C175.302 452.667 211.941 472.005 254.686 478.402C295.542 484.654 334.798 477.966 371.292 458.192C418.254 432.894 449.659 394.364 465.943 343.622C468.996 334.171 468.27 333.154 458.238 333.154C396.445 333.154 334.653 333.008 272.86 333.299C272.424 333.299 271.988 333.299 271.552 333.299C265.445 333.009 264.137 330.682 264.282 324.139C264.573 313.09 264.282 301.895 264.137 290.699V286.192L264.14 282.263C264.14 278.192 264.286 273.976 264.431 269.905C266.03 239.517 272.137 210.003 283.332 181.505C309.503 114.333 354.72 64.027 418.548 30.732C446.755 16.047 476.706 7.17799 508.256 2.81599C563.651 -4.88901 616.866 3.253 667.462 26.806C714.355 48.718 754.384 84.232 783.042 127.235C806.219 162.014 819.243 198.061 825.755 239.226C828.286 255.227 830.391 270.34 830.124 286.603C829.903 300.052 828.615 315.107 826.721 328.434C820.436 372.633 804.324 411.915 779.101 448.644C777.975 450.284 777.115 451.465 775.897 453.036C774.944 454.264 774.058 455.712 773.076 457.012C769.755 461.409 766.25 465.658 762.748 469.905C760.066 473.159 757 476.457 754.189 479.635C750.49 483.816 746.265 487.922 742.261 491.849C741.216 492.875 740.102 493.895 739.032 494.932C732.976 500.81 725.641 506.896 718.99 512.115C716.168 514.329 713.209 516.371 710.406 518.602C709.752 519.122 708.511 519.905 707.736 520.457C705.504 522.048 702.885 523.789 700.582 525.294C698.14 526.889 695.839 528.108 693.301 529.631C690.55 531.282 688.032 532.838 685.258 534.377C682.778 535.752 680.339 537.125 677.842 538.428C674.846 539.992 672.555 541.384 669.365 542.803C668.323 543.267 667.338 543.802 666.297 544.265C665.715 544.555 665.133 544.846 664.407 545.137C663.243 545.719 661.935 546.301 660.771 546.882C659.899 547.318 658.881 547.755 658.009 548.045C655.537 549.209 653.065 550.226 650.449 551.244C629.512 559.822 607.412 565.492 584.876 568.11C584.004 568.256 583.132 568.256 582.259 568.401C580.514 568.546 578.624 568.837 576.879 568.982C576.734 568.982 576.734 568.982 576.589 568.982C575.28 569.128 574.117 569.273 572.808 569.273C571.645 569.418 570.482 569.418 569.319 569.563C565.248 569.854 561.177 570.145 557.106 570.29C556.525 570.29 555.943 570.29 555.507 570.29C554.343 570.29 553.18 570.29 551.872 570.29C515.523 570.872 479.902 565.056 445.444 551.535C445.007 551.389 444.571 551.244 444.28 550.953C442.536 550.081 441.954 548.045 442.972 546.591C442.972 546.591 443.408 546.01 443.699 545.864C443.844 545.719 444.135 545.574 444.135 545.574C444.572 545.283 445.008 544.992 445.444 544.701C445.88 544.41 446.316 544.119 446.752 543.828C447.333 543.392 447.915 543.101 448.351 542.665C472.632 525.508 494.295 505.444 513.633 483.054C517.413 478.692 521.339 476.947 526.864 477.529C568.156 482.326 606.83 473.894 642.452 452.666C695.811 420.971 727.507 374.008 736.957 313.234C744.227 266.417 734.486 222.072 708.751 181.944C679.382 136 637.654 106.339 584.439 96.016C519.158 83.367 462.018 101.104 413.747 147.486C389.175 171.04 372.601 199.246 363.005 231.814C360.533 240.247 361.26 240.973 369.984 240.973C415.286 240.973 460.677 241.062 506.088 240.962L564.92 247.563ZM387.823 23.238L378.292 29.542L373.601 18.399L388.409 22.945L375.506 31.449L369.935 17.373L387.823 23.238ZM506.088 240.962V240.821H564.92V247.563L506.088 240.962ZM311.911 333.168V333.25H264.125L264.138 284.31L311.911 333.168ZM509.644 487.602L518.602 476.562L530.645 477.932L509.644 487.602Z" fill="#F84B00"/>
</svg>
