<svg width="1156" height="244" viewBox="0 0 1156 244" fill="none" xmlns="http://www.w3.org/2000/svg">
<path d="M172.136 124.741H153.582H86.7461V156.367H139.667C132.92 178.927 111.836 195.583 86.9569 195.583C56.3853 195.583 31.7172 170.915 31.7172 140.554C31.7172 109.982 56.3853 85.3143 86.9569 85.3143C105.932 85.3143 122.589 94.802 132.498 109.35H167.919C155.269 76.8807 123.643 53.6885 86.9569 53.6885C39.0966 53.6885 0.0914412 92.6936 0.0914412 140.554C0.0914412 188.414 39.0966 227.209 86.9569 227.209C134.817 227.209 173.612 188.203 173.612 140.554C173.612 135.072 173.19 129.801 172.136 124.741Z" fill="#F84B00"/>
<path d="M229.695 53.6885C205.87 53.6885 184.153 63.387 168.341 79.1999C174.033 86.7901 178.672 95.0128 182.045 103.868L184.153 109.35C194.063 94.802 210.719 85.3143 229.695 85.3143C260.055 85.3143 284.934 109.982 284.934 140.554C284.934 170.915 260.266 195.794 229.695 195.794C210.719 195.794 194.063 186.306 184.153 171.547C180.569 182.511 175.298 192.842 168.341 201.908C184.153 217.721 205.659 227.419 229.695 227.419C277.555 227.419 316.349 188.414 316.349 140.765C316.349 92.6936 277.555 53.6885 229.695 53.6885Z" fill="#F84B00"/>
<path d="M370.113 243.021H337.222V89.32C337.222 87.2116 336.801 85.3141 336.168 84.0491C334.692 81.519 332.795 79.8323 330.265 79.1998C329.21 78.7781 327.945 78.5673 326.259 78.3564V56.4292C331.53 55.5859 335.325 55.1642 337.855 55.1642C350.294 55.1642 359.571 59.5918 365.264 68.447C376.649 60.4351 389.299 56.4292 403.215 56.4292C415.443 56.4292 426.407 59.381 436.316 65.2844C446.226 71.1879 454.238 79.1998 460.141 89.1092C466.045 99.0186 468.996 110.193 468.996 122.211C468.996 134.229 466.045 145.403 460.141 155.312C454.238 165.222 446.226 173.234 436.316 179.137C426.407 185.041 415.233 187.992 403.215 187.992C391.197 187.992 380.233 185.041 370.324 179.137V243.021H370.113ZM403.004 155.312C412.07 155.312 419.871 152.15 426.407 145.614C432.943 139.078 436.106 131.488 436.106 122.211C436.106 113.145 432.943 105.344 426.407 98.8078C419.871 92.2718 412.281 89.1092 403.004 89.1092C393.727 89.1092 386.137 92.2718 379.812 98.8078C373.487 105.344 370.113 112.934 370.113 122.211C370.113 131.277 373.276 139.078 379.812 145.614C386.137 151.939 393.727 155.312 403.004 155.312Z" fill="#753ED8"/>
<path d="M558.814 188.204C546.585 188.204 536.043 185.884 527.399 181.035C518.754 176.186 511.797 169.861 506.526 162.06C498.725 150.463 494.719 137.181 494.719 122.422C494.719 107.663 498.725 94.3804 506.526 82.7842C511.797 74.9832 518.754 68.6581 527.399 63.8088C536.043 58.9595 546.585 56.6403 558.814 56.6403C571.042 56.6403 581.373 58.9595 590.228 63.8088C598.873 68.6581 606.041 74.9832 611.101 82.7842C618.902 94.3804 622.698 107.663 622.698 122.422C622.698 137.181 618.902 150.674 611.101 162.06C605.831 169.861 598.873 176.186 590.228 181.035C581.584 185.884 571.042 188.204 558.814 188.204ZM558.814 155.313C565.771 155.313 571.675 153.626 576.313 150.463C580.952 147.301 584.536 143.084 586.855 138.024C589.174 132.964 590.439 127.693 590.439 122.211C590.439 116.729 589.174 111.458 586.855 106.398C584.536 101.338 580.952 97.3321 576.313 93.9587C571.675 90.7961 565.771 89.1094 558.814 89.1094C552.067 89.1094 546.585 90.7961 542.157 93.9587C537.73 97.1213 534.356 101.338 532.037 106.398C529.718 111.458 528.664 116.729 528.664 122.211C528.664 127.693 529.718 132.964 532.037 138.024C534.356 143.084 537.73 147.301 542.157 150.463C546.585 153.626 552.067 155.313 558.814 155.313Z" fill="#753ED8"/>
<path d="M709.141 188.204C699.232 188.204 689.955 185.884 681.311 181.035C672.666 176.186 665.709 169.861 660.438 162.06C652.637 150.253 648.631 137.181 648.631 122.422C648.631 107.663 652.637 94.3804 660.438 82.7842C665.709 74.9832 672.666 68.6581 681.311 63.8088C689.955 58.9595 700.497 56.6403 712.726 56.6403C722.424 56.6403 730.647 58.5378 737.605 62.1221C740.346 63.5979 743.086 65.4955 745.827 67.6039V100.495C743.086 98.3863 740.346 96.4887 737.605 95.0129C730.858 91.4286 722.424 89.5311 712.726 89.5311C706.19 89.5311 700.497 91.2178 696.28 94.3804C691.853 97.5429 688.479 101.76 686.371 106.82C684.263 111.88 682.997 117.151 682.997 122.633C682.997 128.115 684.052 133.385 686.371 138.446C688.69 143.506 691.853 147.512 696.28 150.885C700.708 154.048 706.19 155.734 712.726 155.734C724.954 155.734 737.394 152.993 750.255 147.512L756.58 144.771V166.065C745.195 180.613 729.382 188.204 709.141 188.204Z" fill="#753ED8"/>
<path d="M910.281 188.203H877.39L836.909 123.687L822.362 139.5V188.203H789.471V12.3639L797.693 11.0989C803.175 10.2555 811.398 9.83386 822.572 9.83386V97.9644L861.578 56.2183H899.529L856.939 102.181L910.281 188.203Z" fill="#753ED8"/>
<path d="M987.238 156.156C1000.73 156.156 1014.23 152.15 1027.93 144.138V165.433C1015.7 180.403 999.888 187.993 980.491 187.993C968.262 187.993 957.299 185.041 947.389 179.137C937.48 173.234 929.468 165.222 923.564 155.313C917.661 145.403 914.709 134.229 914.709 122.211C914.709 110.193 917.661 99.0188 923.564 89.1094C929.468 79.2 937.48 71.1881 947.389 65.2847C957.299 59.3812 968.473 56.4294 980.491 56.4294C989.135 56.4294 996.725 57.6945 1003.05 60.0137C1009.38 62.3329 1014.65 65.4955 1018.86 69.5014C1023.08 73.5074 1026.45 77.7241 1028.77 82.5734C1031.3 87.4227 1032.99 92.272 1034.04 97.3321C1035.1 102.392 1035.52 107.031 1035.52 111.458V133.386H949.498C952.028 148.566 964.678 156.156 987.238 156.156ZM1001.15 103.868C1000.52 101.76 999.466 99.4405 997.78 97.1213C996.304 94.8021 993.985 92.9045 991.244 91.4286C988.503 89.9528 984.918 89.1094 980.28 89.1094C974.587 89.1094 969.316 90.3745 964.467 93.1154C959.618 95.8563 955.823 99.4405 952.871 103.868H1001.15Z" fill="#753ED8"/>
<path d="M1115.85 194.739C1099.61 194.739 1087.39 190.944 1079.58 183.143C1071.78 175.342 1067.78 163.324 1067.78 147.09V3.29798L1076 2.03295C1081.69 1.40044 1089.92 0.97876 1100.88 0.97876V55.7968H1155.7V88.6876H1100.88V143.506C1100.88 155.734 1108.26 161.638 1123.02 161.638C1132.93 161.638 1143.89 159.319 1155.91 154.469V175.764C1144.73 188.414 1131.45 194.739 1115.85 194.739Z" fill="#753ED8"/>
</svg>
