<svg width="53" height="36" viewBox="0 0 53 36" fill="none" xmlns="http://www.w3.org/2000/svg"><path fill-rule="evenodd" clip-rule="evenodd" d="M17.4803 0C19.9959 0 22.3825 0.516023 24.5111 1.48357L18.7058 6.32128C18.3188 6.25678 17.9318 6.25678 17.4803 6.25678C11.288 6.25678 6.25678 11.288 6.25678 17.4803C6.25678 23.6726 11.288 28.7038 17.4803 28.7038C21.802 28.7038 24.7691 25.9947 27.7362 23.5436L34.9606 17.4803L38.9597 22.318L30.8324 29.2198C28.3168 31.2839 26.7042 32.832 23.35 34.0575C21.544 34.7026 19.5444 35.0251 17.5448 35.0251C7.86935 35.0251 0 27.1557 0 17.4803C0 7.86935 7.86935 0 17.4803 0Z" fill="url(#paint0_linear_5_3)"/><path fill-rule="evenodd" clip-rule="evenodd" d="M35.2831 35.0251C32.7675 35.0251 30.3809 34.5091 28.2523 33.5415L34.1221 28.6393C34.5091 28.7038 34.8961 28.7038 35.3476 28.7038C41.5399 28.7038 46.5711 23.6726 46.5711 17.4803C46.5711 11.288 41.5399 6.25681 35.3476 6.25681C31.0259 6.25681 28.0588 8.96593 25.0917 11.417L17.8673 17.4803L13.8682 12.6426L21.9955 5.80529C24.5111 3.7412 26.1237 2.19313 29.4779 0.967574C31.2839 0.322545 33.2835 3.05176e-05 35.2831 3.05176e-05C44.9586 3.05176e-05 52.7634 7.86938 52.7634 17.4803C52.8279 27.1557 44.9586 35.0251 35.2831 35.0251Z" fill="url(#paint1_linear_5_3)"/><defs><linearGradient id="paint0_linear_5_3" x1="19.4799" y1="0" x2="19.4799" y2="35.0251" gradientUnits="userSpaceOnUse"><stop stop-color="#5C20C7"/><stop offset="1" stop-color="#5C00FF" stop-opacity="0.71"/></linearGradient><linearGradient id="paint1_linear_5_3" x1="33.316" y1="3.05176e-05" x2="33.316" y2="35.0251" gradientUnits="userSpaceOnUse"><stop stop-color="#5C20C7"/><stop offset="1" stop-color="#5C00FF" stop-opacity="0.71"/></linearGradient></defs></svg>